<svg width="10" height="9" viewBox="0 0 10 9" fill="none" xmlns="http://www.w3.org/2000/svg">
<path fill-rule="evenodd" clip-rule="evenodd" d="M9.59258 0.152333C9.7984 0.356563 9.79969 0.688972 9.59546 0.89479C7.88301 2.62056 6.5172 4.34827 5.5794 5.64513C5.11084 6.29311 4.74998 6.83233 4.50697 7.20838C4.38548 7.39638 4.29351 7.54351 4.2323 7.64295C4.2017 7.69267 4.1788 7.73046 4.16376 7.75547L4.1471 7.78329L4.14323 7.78981L4.14242 7.79118C4.05019 7.94782 3.88338 8.0458 3.70165 8.04987C3.52017 8.05393 3.34949 7.96395 3.25028 7.81198C3.25023 7.81191 3.24986 7.81134 3.24982 7.81127L3.24928 7.81046L3.24276 7.80073C3.23641 7.79135 3.22608 7.77624 3.21175 7.75584C3.18307 7.71505 3.13842 7.65316 3.07768 7.57368C2.95617 7.41465 2.7706 7.18561 2.52024 6.91441C2.01902 6.37147 1.26138 5.66312 0.241559 5.0088C-0.00247968 4.85222 -0.073382 4.52746 0.083194 4.28342C0.23977 4.03939 0.564532 3.96848 0.80857 4.12506C1.91812 4.83695 2.7429 5.60764 3.29176 6.20218C3.42642 6.34805 3.54466 6.48353 3.64662 6.60521C3.89781 6.21762 4.26154 5.67569 4.72855 5.02987C5.68896 3.70173 7.08959 1.92944 8.85012 0.15521C9.05435 -0.0506079 9.38676 -0.051896 9.59258 0.152333Z" fill="white"/>
</svg>
